<svg width="4419.22" height="1104.81" viewBox="0 0 4419.22 1104.81" fill="none" xmlns="http://www.w3.org/2000/svg">
<path class="cls-1" d="M419.92,394.29H133.06v115.97c128.17-1.22,225.83-6.71,338.13-28.08l12.21,108.64c-133.06,24.41-245.36,28.08-406.49,28.08H1.22v-324.71h288.09v-108.64H0v-107.42h419.92v316.16ZM904.54,896c-1.22,128.17-147.71,206.3-378.42,206.3s-378.42-78.12-378.42-206.3,145.26-203.86,378.42-205.08c230.71,1.22,377.2,76.9,378.42,205.08ZM283.2,896c0,67.14,90.33,101.32,242.92,101.32s241.7-34.18,241.7-101.32-90.33-100.1-241.7-100.1-242.92,35.4-242.92,100.1ZM898.44,676.27h-129.39v-288.09h-114.75v251.46h-126.95V21.97h126.95v256.35h114.75V1.22h129.39v675.05Z" fill="white"/>
<path class="cls-1" d="M1109.62,676.27l-50.05-108.64c169.07-46.39,278.93-112.3,344.24-194.09l-328.37,24.41-20.75-107.42,405.27-15.87c11.6-29.91,18.92-62.26,23.19-96.44h-372.31v-108.64h517.58c-1.22,297.85-152.59,500.49-518.8,606.69ZM1958.01,887.45c0,136.72-145.26,213.62-374.76,213.62s-379.64-76.9-379.64-213.62,145.26-216.06,379.64-216.06,374.76,79.35,374.76,216.06ZM1340.33,887.45c0,69.58,85.45,108.64,242.92,108.64s239.26-39.06,239.26-108.64-87.89-108.64-239.26-108.64-242.92,37.84-242.92,108.64ZM1954.35,655.52h-136.72V1.22h136.72v654.3Z" fill="white"/>
<path class="cls-1" d="M3420.41,970.46h-1008.3v-111.08h434.57v-214.84h-323.49V73.24h135.5v180.66h511.47V73.24h135.5v571.29h-324.71v214.84h439.45v111.08ZM3170.17,534.67v-172.12h-511.47v172.12h511.47Z" fill="white"/>
<path class="cls-1" d="M3570.56,908.2l-70.8-108.64c288.7-137.33,422.97-324.1,446.78-574.95h-390.62v-107.42h528.56c0,328.37-126.95,607.91-513.92,791.02ZM4414.06,1103.52h-136.72V0h136.72v1103.52Z" fill="white"/>
</svg>
