<?xml version="1.0" encoding="UTF-8"?>
<svg xmlns="http://www.w3.org/2000/svg" version="1.1" viewBox="0 0 1830 589">
  <!-- Generator: Adobe Illustrator 28.7.3, SVG Export Plug-In . SVG Version: 1.2.0 Build 164)  -->
  <g>
    <g id="_레이어_1" data-name="레이어_1">
      <g>
        <path d="M198.4,406.2c-10.2,0-17.8-3.2-22.7-9.5-4.9-6.3-7.4-14.8-7.4-25.4v-142.6c0-15.5,4.1-26.9,12.2-34.3,8.1-7.3,17.9-11,29.3-11s20,3.7,27.5,11c7.5,7.3,13.1,19,16.6,34.9l23,103.7h7.7l23-103.7c3.5-15.9,9.2-27.5,16.9-34.9,7.7-7.3,17-11,27.8-11s21.1,3.7,29.3,11c8.1,7.3,12.2,18.8,12.2,34.3v142.6c0,10.6-2.5,19.1-7.5,25.4-5,6.3-12.6,9.5-22.8,9.5s-17.4-3.2-22.7-9.5c-5.3-6.3-7.9-14.8-7.9-25.4v-82.3c0-2-.2-3.9-.7-5.7-.5-1.7-1.8-2.6-4-2.6s-3,.9-3.8,2.6c-.8,1.7-1.4,3.6-1.8,5.7l-11.2,77.1c-1.4,8.4-3,15.6-4.9,21.6-1.9,6-4.8,10.6-8.7,13.8-3.9,3.2-9.6,4.7-17.1,4.7s-12.9-1.6-16.9-4.7c-4-3.2-7-7.8-8.8-13.8-1.9-6-3.4-13.2-4.6-21.6l-11.5-77.1c-.2-2-.7-3.9-1.5-5.7-.8-1.7-2.2-2.6-4.1-2.6s-3.2.9-3.8,2.6c-.6,1.7-.9,3.6-.9,5.7v82.3c0,10.6-2.6,19.1-7.8,25.4-5.2,6.3-12.7,9.5-22.5,9.5Z"/>
        <path d="M502.1,407.1c-11.8-.2-23-1.8-33.7-4.9-10.7-3.1-20.3-8.1-28.7-15-8.4-6.9-15.1-16.2-19.9-27.8-4.8-11.6-7.2-26-7.2-43.1v-103.7c0-9.8,3.1-17.1,9.3-21.9,6.2-4.8,13.4-7.2,21.6-7.2s15.2,2.4,21.5,7.2c6.3,4.8,9.4,12.1,9.4,21.9v89.4c0,14.5,3.3,25.1,9.9,31.8,6.6,6.7,15.1,9.8,25.5,9.2,11-.8,18.9-5.2,23.7-13.2,4.8-8,6.1-18.6,4-31.8-1.4-9-2.9-16.5-4.6-22.6-1.7-6.1-3.3-11.6-5-16.4-1.7-4.8-3.1-9.6-4.3-14.4-1.2-4.8-2.1-10.5-2.6-17-1.2-13.7,1.5-24.4,8.1-32.3,6.6-7.9,15.2-11.8,26-11.8s19.2,3.8,25.3,11.3c6.1,7.5,9.1,19,9.1,34.3v87.2c0,17.1-2.3,31.6-6.9,43.3-4.6,11.7-11,21.1-19.1,28.2-8.1,7-17.5,12-28,15-10.5,3-21.6,4.4-33.4,4.4Z"/>
        <path d="M608,213.1c0-9.4,2.8-16.7,8.4-21.9,5.6-5.2,12.8-7.8,21.6-7.8s16.6,2.6,22.1,7.8c5.5,5.2,8.2,12.5,8.2,21.9v130.4c0,3.9,1,6.6,2.9,8.1,2,1.5,5.2,1,9.7-1.7,9.8-5.9,18.5-10.7,26.2-14.2,7.6-3.6,16.1-5.4,25.3-5.4s22.4,3.5,28.8,10.4c6.5,6.9,9.7,16,9.7,27.2s-3.5,21.3-10.4,27.8c-7,6.5-18.1,9.8-33.4,9.8h-60.6c-12.9,0-23.7-1.6-32.4-4.7-8.6-3.2-15.2-8.9-19.6-17.3-4.4-8.4-6.6-20.5-6.6-36.4v-134Z"/>
        <path d="M727.2,242.5c-5.7-12.6-7-24-3.8-34.1,3.1-10.1,9.1-17.2,17.9-21.3,9-4.1,18.2-4.1,27.5-.2,9.3,4,16.1,12.3,20.4,24.9,2.2,6.3,3.7,13.6,4.7,21.9,1,8.3,2.1,16.2,3.4,23.9,1.3,7.7,3.4,14,6.5,19,3,5,7.8,7.5,14.3,7.5s11.3-2.5,14.4-7.5c3.1-5,5.3-11.3,6.6-19,1.3-7.6,2.4-15.6,3.2-23.9.9-8.3,2.4-15.6,4.6-21.9,4.5-12.6,11.4-21,20.6-24.9,9.2-4,18.3-3.9,27.4.2,8.8,4.1,14.8,11.2,17.9,21.3,3.1,10.1,1.9,21.5-3.8,34.1-2.9,6.5-6.8,12.7-11.6,18.5-4.8,5.8-10.1,11.8-15.7,17.9-5.7,6.1-11.4,12.9-17.1,20.3-5.7,7.4-10.9,16-15.6,25.6v52.3c0,8.4-2.9,15.3-8.8,20.8s-13.2,8.3-22.1,8.3-15.9-2.8-21.9-8.3c-6-5.5-9-12.4-9-20.8v-52.3c-4.5-9.6-9.6-18.1-15.3-25.6-5.7-7.4-11.4-14.2-17.1-20.3-5.7-6.1-11-12.1-15.9-17.9-4.9-5.8-8.8-12-11.8-18.5Z"/>
        <path d="M1044.4,335.5v38.2c0,10.6-2.7,18.7-8.1,24.2-5.4,5.5-12.5,8.3-21.3,8.3h-.3c-9.6,0-17.2-2.8-22.8-8.3-5.6-5.5-8.4-13.6-8.4-24.2v-43.1c0-21.6,3.1-38,9.4-49.3,6.3-11.2,14.2-19.3,23.8-24.2l-1.5-5.8h-5c-9,0-16.1-3-21.3-9-5.2-6-7.9-14.2-8.1-24.6-.2-10.2,2.4-18.5,7.8-24.8,5.4-6.3,12.6-9.5,21.6-9.5h77.4c19.8,0,35.9,6.2,48.4,18.5,12.5,12.3,18.7,31.8,18.7,58.3s-3.2,34.3-9.7,45.3c-6.5,11-15,18.8-25.6,23.3-10.6,4.5-22.1,6.7-34.4,6.7h-40.6ZM1040.5,276.4c0,4.5.8,7.4,2.5,8.9,1.7,1.4,4.7,2.1,9,2.1h27.4c8.2,0,14.2-2,17.9-6,3.7-4,5.6-9.6,5.6-17s-1.9-13-5.6-16.8c-3.7-3.9-9.7-5.8-17.9-5.8h-27.4c-4.3,0-7.3.6-9,1.8-1.7,1.2-2.5,4.2-2.5,8.9v23.9Z"/>
        <path d="M1170.3,406.2c-13.1-2-21.7-8.3-25.6-18.8-3.9-10.5-3.1-23.8,2.4-39.9l38.8-114.8c3.5-10.6,7.6-19.7,12.2-27.2,4.6-7.5,10.4-13.4,17.4-17.4,7-4.1,15.6-6.1,26-6.1,15.7,0,27.5,4.5,35.5,13.5,7.9,9,14.6,21.4,19.9,37.3l38.5,114.8c5.5,16.1,6.5,29.4,3.1,39.9-3.4,10.5-11.8,16.8-25.2,18.8-10.8,1.4-20.2.1-28.1-4-7.9-4.1-12.7-10.7-14.3-19.9-1.2-6.1-1.3-11.2-.4-15.3.9-4.1,1.7-7.3,2.5-9.8.6-2,.6-4,.1-6-.5-1.9-2-2.9-4.6-2.9h-54.7c-2.6,0-4.1,1-4.6,2.9-.5,1.9-.3,3.9.4,6,.8,2.4,1.6,5.7,2.4,9.8.8,4.1.7,9.2-.3,15.3-1.6,9.2-6.2,15.8-13.8,19.9-7.7,4.1-16.9,5.4-27.7,4ZM1263,305.5l-15.3-49.9c-.4-2-1-3.6-1.9-4.7-.9-1.1-2.3-1.7-4.3-1.7s-3.4.6-4.3,1.7c-.9,1.1-1.6,2.7-2.2,4.7l-15,49.9h43Z"/>
        <path d="M1355.1,213.1c0-9.4,2.8-16.7,8.4-21.9,5.6-5.2,12.8-7.8,21.6-7.8s16.6,2.6,22.1,7.8c5.5,5.2,8.2,12.5,8.2,21.9v130.4c0,3.9,1,6.6,2.9,8.1,2,1.5,5.2,1,9.7-1.7,9.8-5.9,18.5-10.7,26.2-14.2,7.7-3.6,16.1-5.4,25.3-5.4s22.4,3.5,28.8,10.4c6.5,6.9,9.7,16,9.7,27.2s-3.5,21.3-10.4,27.8c-7,6.5-18.1,9.8-33.4,9.8h-60.6c-12.9,0-23.7-1.6-32.4-4.7-8.6-3.2-15.2-8.9-19.6-17.3-4.4-8.4-6.6-20.5-6.6-36.4v-134Z"/>
        <path d="M1474.2,242.5c-5.7-12.6-7-24-3.8-34.1,3.1-10.1,9.1-17.2,17.9-21.3,9-4.1,18.2-4.1,27.5-.2,9.3,4,16.1,12.3,20.5,24.9,2.2,6.3,3.7,13.6,4.7,21.9,1,8.3,2.1,16.2,3.4,23.9,1.3,7.7,3.4,14,6.5,19,3,5,7.8,7.5,14.3,7.5s11.3-2.5,14.4-7.5c3.1-5,5.3-11.3,6.6-19,1.3-7.6,2.4-15.6,3.2-23.9.9-8.3,2.4-15.6,4.6-21.9,4.5-12.6,11.4-21,20.6-24.9,9.2-4,18.3-3.9,27.4.2,8.8,4.1,14.8,11.2,17.9,21.3,3.1,10.1,1.9,21.5-3.8,34.1-2.9,6.5-6.8,12.7-11.6,18.5-4.8,5.8-10.1,11.8-15.7,17.9-5.7,6.1-11.4,12.9-17.1,20.3-5.7,7.4-10.9,16-15.6,25.6v52.3c0,8.4-2.9,15.3-8.8,20.8s-13.2,8.3-22.1,8.3-15.9-2.8-21.9-8.3c-6-5.5-9-12.4-9-20.8v-52.3c-4.5-9.6-9.6-18.1-15.3-25.6-5.7-7.4-11.4-14.2-17.1-20.3-5.7-6.1-11-12.1-15.9-17.9-4.9-5.8-8.8-12-11.8-18.5Z"/>
      </g>
    </g>
  </g>
</svg>